<?xml version="1.0" encoding="UTF-8"?>
<svg width="30px" height="30px" viewBox="0 0 30 30" version="1.1" xmlns="http://www.w3.org/2000/svg" xmlns:xlink="http://www.w3.org/1999/xlink">
    <!-- Generator: Sketch 63.1 (92452) - https://sketch.com -->
    <title>noun_Calendar_2080616</title>
    <desc>Created with Sketch.</desc>
    <g id="Page-1" stroke="none" stroke-width="1" fill="none" fill-rule="evenodd">
        <g id="timeline-view_mobile" transform="translate(-44.000000, -613.000000)" fill="#FFFFFF" fill-rule="nonzero">
            <g id="noun_Calendar_2080616" transform="translate(44.000000, 613.000000)">
                <path d="M5.90625,17.9375 L5.8125,17.9375 C5.1875,17.9375 4.6875,18.4375 4.6875,19.0625 L4.6875,19.1875 C4.6875,19.8125 5.1875,20.3125 5.8125,20.3125 L5.90625,20.3125 C6.53125,20.3125 7.03125,19.8125 7.03125,19.1875 L7.03125,19.0625 C7.03125,18.4375 6.53125,17.9375 5.90625,17.9375 Z" id="Path"></path>
                <path d="M10.46875,17.9375 L10.375,17.9375 C9.75,17.9375 9.25,18.4375 9.25,19.0625 L9.25,19.1875 C9.25,19.8125 9.75,20.3125 10.375,20.3125 L10.46875,20.3125 C11.09375,20.3125 11.59375,19.8125 11.59375,19.1875 L11.59375,19.0625 C11.59375,18.4375 11.09375,17.9375 10.46875,17.9375 Z" id="Path"></path>
                <path d="M15.0625,17.9375 L14.9375,17.9375 C14.3125,17.9375 13.8125,18.4375 13.8125,19.0625 L13.8125,19.1875 C13.8125,19.8125 14.3125,20.3125 14.9375,20.3125 L15.0625,20.3125 C15.6875,20.3125 16.1875,19.8125 16.1875,19.1875 L16.1875,19.0625 C16.1875,18.4375 15.6875,17.9375 15.0625,17.9375 Z" id="Path"></path>
                <path d="M5.90625,13.3125 L5.8125,13.3125 C5.1875,13.3125 4.6875,13.8125 4.6875,14.4375 L4.6875,14.5625 C4.6875,15.1875 5.1875,15.6875 5.8125,15.6875 L5.90625,15.6875 C6.53125,15.6875 7.03125,15.1875 7.03125,14.5625 L7.03125,14.4375 C7.03125,13.8125 6.53125,13.3125 5.90625,13.3125 Z" id="Path"></path>
                <path d="M10.46875,13.3125 L10.375,13.3125 C9.75,13.3125 9.25,13.8125 9.25,14.4375 L9.25,14.5625 C9.25,15.1875 9.75,15.6875 10.375,15.6875 L10.46875,15.6875 C11.09375,15.6875 11.59375,15.1875 11.59375,14.5625 L11.59375,14.4375 C11.59375,13.8125 11.09375,13.3125 10.46875,13.3125 Z" id="Path"></path>
                <path d="M15.0625,13.3125 L14.9375,13.3125 C14.3125,13.3125 13.8125,13.8125 13.8125,14.4375 L13.8125,14.5625 C13.8125,15.1875 14.3125,15.6875 14.9375,15.6875 L15.0625,15.6875 C15.6875,15.6875 16.1875,15.1875 16.1875,14.5625 L16.1875,14.4375 C16.1875,13.8125 15.6875,13.3125 15.0625,13.3125 Z" id="Path"></path>
                <path d="M19.625,17.9375 L19.5,17.9375 C18.875,17.9375 18.375,18.4375 18.375,19.0625 L18.375,19.1875 C18.375,19.8125 18.875,20.3125 19.5,20.3125 L19.625,20.3125 C20.25,20.3125 20.75,19.8125 20.75,19.1875 L20.75,19.0625 C20.78125,18.4375 20.25,17.9375 19.625,17.9375 Z" id="Path"></path>
                <path d="M24.21875,17.9375 L24.09375,17.9375 C23.46875,17.9375 22.96875,18.4375 22.96875,19.0625 L22.96875,19.1875 C22.96875,19.8125 23.46875,20.3125 24.09375,20.3125 L24.21875,20.3125 C24.84375,20.3125 25.34375,19.8125 25.34375,19.1875 L25.34375,19.0625 C25.34375,18.4375 24.84375,17.9375 24.21875,17.9375 Z" id="Path"></path>
                <path d="M19.625,13.3125 L19.5,13.3125 C18.875,13.3125 18.375,13.8125 18.375,14.4375 L18.375,14.5625 C18.375,15.1875 18.875,15.6875 19.5,15.6875 L19.625,15.6875 C20.25,15.6875 20.75,15.1875 20.75,14.5625 L20.75,14.4375 C20.78125,13.8125 20.25,13.3125 19.625,13.3125 Z" id="Path"></path>
                <path d="M24.21875,13.3125 L24.09375,13.3125 C23.46875,13.3125 22.96875,13.8125 22.96875,14.4375 L22.96875,14.5625 C22.96875,15.1875 23.46875,15.6875 24.09375,15.6875 L24.21875,15.6875 C24.84375,15.6875 25.34375,15.1875 25.34375,14.5625 L25.34375,14.4375 C25.34375,13.8125 24.84375,13.3125 24.21875,13.3125 Z" id="Path"></path>
                <path d="M5.90625,22.53125 L5.8125,22.53125 C5.1875,22.53125 4.6875,23.03125 4.6875,23.65625 L4.6875,23.78125 C4.6875,24.40625 5.1875,24.90625 5.8125,24.90625 L5.90625,24.90625 C6.53125,24.90625 7.03125,24.40625 7.03125,23.78125 L7.03125,23.65625 C7.03125,23.0625 6.53125,22.53125 5.90625,22.53125 Z" id="Path"></path>
                <path d="M10.46875,22.53125 L10.375,22.53125 C9.75,22.53125 9.25,23.03125 9.25,23.65625 L9.25,23.78125 C9.25,24.40625 9.75,24.90625 10.375,24.90625 L10.46875,24.90625 C11.09375,24.90625 11.59375,24.40625 11.59375,23.78125 L11.59375,23.65625 C11.59375,23.0625 11.09375,22.53125 10.46875,22.53125 Z" id="Path"></path>
                <path d="M15.0625,22.53125 L14.9375,22.53125 C14.3125,22.53125 13.8125,23.03125 13.8125,23.65625 L13.8125,23.78125 C13.8125,24.40625 14.3125,24.90625 14.9375,24.90625 L15.0625,24.90625 C15.6875,24.90625 16.1875,24.40625 16.1875,23.78125 L16.1875,23.65625 C16.1875,23.0625 15.6875,22.53125 15.0625,22.53125 Z" id="Path"></path>
                <path d="M19.625,22.53125 L19.5,22.53125 C18.875,22.53125 18.375,23.03125 18.375,23.65625 L18.375,23.78125 C18.375,24.40625 18.875,24.90625 19.5,24.90625 L19.625,24.90625 C20.25,24.90625 20.75,24.40625 20.75,23.78125 L20.75,23.65625 C20.78125,23.0625 20.25,22.53125 19.625,22.53125 Z" id="Path"></path>
                <path d="M24.21875,22.53125 L24.09375,22.53125 C23.46875,22.53125 22.96875,23.03125 22.96875,23.65625 L22.96875,23.78125 C22.96875,24.40625 23.46875,24.90625 24.09375,24.90625 L24.21875,24.90625 C24.84375,24.90625 25.34375,24.40625 25.34375,23.78125 L25.34375,23.65625 C25.34375,23.0625 24.84375,22.53125 24.21875,22.53125 Z" id="Path"></path>
                <path d="M29.84375,9.65625 C29.84375,9.65625 29.84375,9.625 29.84375,9.65625 L29.84375,7.125 C29.84375,5.1875 28.28125,3.625 26.375,3.625 L24.53125,3.625 L24.53125,2.53125 C24.53125,1.1875 23.4375,0.09375 22.09375,0.09375 C20.75,0.09375 19.65625,1.1875 19.65625,2.53125 L19.65625,3.625 L10.40625,3.625 L10.40625,2.53125 C10.40625,1.1875 9.3125,0.09375 7.96875,0.09375 C6.625,0.09375 5.53125,1.1875 5.53125,2.53125 L5.53125,3.625 L3.6875,3.625 C1.75,3.625 0.1875,5.1875 0.1875,7.125 L0.1875,25.8125 C0.1875,27.71875 1.75,29.28125 3.6875,29.28125 L26.40625,29.28125 C28.3125,29.28125 29.875,27.71875 29.875,25.8125 L29.84375,9.65625 C29.84375,9.6875 29.84375,9.65625 29.84375,9.65625 Z M21.09375,2.53125 C21.09375,2 21.53125,1.5625 22.0625,1.5625 C22.59375,1.5625 23.03125,2 23.03125,2.53125 L23.03125,4.84375 C23.03125,5.375 22.59375,5.8125 22.0625,5.8125 C21.53125,5.8125 21.09375,5.375 21.09375,4.84375 L21.09375,2.53125 Z M6.96875,2.53125 C6.96875,2 7.40625,1.5625 7.9375,1.5625 C8.46875,1.5625 8.90625,2 8.90625,2.53125 L8.90625,4.84375 C8.90625,5.375 8.46875,5.8125 7.9375,5.8125 C7.40625,5.8125 6.96875,5.375 6.96875,4.84375 L6.96875,2.53125 Z M3.65625,5.09375 L5.53125,5.09375 C5.65625,6.3125 6.6875,7.28125 7.96875,7.28125 C9.21875,7.28125 10.25,6.3125 10.375,5.09375 L19.65625,5.09375 C19.78125,6.3125 20.8125,7.28125 22.0625,7.28125 C23.3125,7.28125 24.34375,6.3125 24.46875,5.09375 L26.34375,5.09375 C27.4375,5.09375 28.34375,6 28.34375,7.125 L28.34375,8.9375 L1.625,8.9375 L1.625,7.125 C1.625,6 2.53125,5.09375 3.65625,5.09375 Z M26.375,27.8125 L3.65625,27.8125 C2.53125,27.8125 1.625,26.90625 1.625,25.8125 L1.625,10.375 L28.375,10.375 L28.375,25.8125 C28.375,26.90625 27.46875,27.8125 26.375,27.8125 Z" id="Shape"></path>
            </g>
        </g>
    </g>
</svg>