<?xml version="1.0" encoding="UTF-8"?>
<svg width="25px" height="25px" viewBox="0 0 25 25" version="1.1" xmlns="http://www.w3.org/2000/svg" xmlns:xlink="http://www.w3.org/1999/xlink">
    <!-- Generator: Sketch 63.1 (92452) - https://sketch.com -->
    <title>Group 2</title>
    <desc>Created with Sketch.</desc>
    <g id="Page-1" stroke="none" stroke-width="1" fill="none" fill-rule="evenodd">
        <g id="timeline-view_mobile" transform="translate(-163.000000, -615.000000)" fill="#FFFFFF" fill-rule="nonzero">
            <g id="Group-2" transform="translate(163.000000, 615.000000)">
                <path d="M4.73684211,0 L2.5,0 C1.13157895,0 0,1.10526316 0,2.5 L0,4.73684211 C0,6.10526316 1.10526316,7.23684211 2.5,7.23684211 L4.73684211,7.23684211 C6.10526316,7.23684211 7.23684211,6.13157895 7.23684211,4.73684211 L7.23684211,2.5 C7.21052632,1.10526316 6.10526316,0 4.73684211,0 Z M5.63157895,4.73684211 C5.63157895,5.23684211 5.23684211,5.63157895 4.73684211,5.63157895 L2.5,5.63157895 C2,5.63157895 1.60526316,5.23684211 1.60526316,4.73684211 L1.60526316,2.5 C1.60526316,2 2,1.60526316 2.5,1.60526316 L4.73684211,1.60526316 C5.23684211,1.60526316 5.63157895,2 5.63157895,2.5 L5.63157895,4.73684211 Z" id="Shape"></path>
                <path d="M13.6052632,0 L11.3684211,0 C10,0 8.86842105,1.10526316 8.86842105,2.5 L8.86842105,4.73684211 C8.86842105,6.10526316 9.97368421,7.23684211 11.3684211,7.23684211 L13.6052632,7.23684211 C14.9736842,7.23684211 16.1052632,6.13157895 16.1052632,4.73684211 L16.1052632,2.5 C16.1052632,1.10526316 15,0 13.6052632,0 Z M14.5263158,4.73684211 C14.5263158,5.23684211 14.1315789,5.63157895 13.6315789,5.63157895 L11.3947368,5.63157895 C10.8947368,5.63157895 10.5,5.23684211 10.5,4.73684211 L10.5,2.5 C10.5,2 10.8947368,1.60526316 11.3947368,1.60526316 L13.6315789,1.60526316 C14.1315789,1.60526316 14.5263158,2 14.5263158,2.5 L14.5263158,4.73684211 Z" id="Shape"></path>
                <path d="M4.73684211,8.89473684 L2.5,8.89473684 C1.13157895,8.89473684 0,10 0,11.3947368 L0,13.6315789 C0,15 1.10526316,16.1315789 2.5,16.1315789 L4.73684211,16.1315789 C6.10526316,16.1315789 7.23684211,15.0263158 7.23684211,13.6315789 L7.23684211,11.3947368 C7.21052632,10 6.10526316,8.89473684 4.73684211,8.89473684 Z M5.63157895,13.6052632 C5.63157895,14.1052632 5.23684211,14.5 4.73684211,14.5 L2.5,14.5 C2,14.5 1.60526316,14.1052632 1.60526316,13.6052632 L1.60526316,11.3684211 C1.60526316,10.8684211 2,10.4736842 2.5,10.4736842 L4.73684211,10.4736842 C5.23684211,10.4736842 5.63157895,10.8684211 5.63157895,11.3684211 L5.63157895,13.6052632 Z" id="Shape"></path>
                <path d="M13.6052632,8.89473684 L11.3684211,8.89473684 C10,8.89473684 8.86842105,10 8.86842105,11.3947368 L8.86842105,13.6315789 C8.86842105,15 9.97368421,16.1315789 11.3684211,16.1315789 L13.6052632,16.1315789 C14.9736842,16.1315789 16.1052632,15.0263158 16.1052632,13.6315789 L16.1052632,11.3947368 C16.1052632,10 15,8.89473684 13.6052632,8.89473684 Z M14.5263158,13.6052632 C14.5263158,14.1052632 14.1315789,14.5 13.6315789,14.5 L11.3947368,14.5 C10.8947368,14.5 10.5,14.1052632 10.5,13.6052632 L10.5,11.3684211 C10.5,10.8684211 10.8947368,10.4736842 11.3947368,10.4736842 L13.6315789,10.4736842 C14.1315789,10.4736842 14.5263158,10.8684211 14.5263158,11.3684211 L14.5263158,13.6052632 Z" id="Shape"></path>
                <path d="M4.73684211,17.7894737 L2.5,17.7894737 C1.13157895,17.7894737 0,18.8947368 0,20.2894737 L0,22.5 C0,23.8684211 1.10526316,25 2.5,25 L4.73684211,25 C6.10526316,25 7.23684211,23.8947368 7.23684211,22.5 L7.23684211,20.2631579 C7.21052632,18.8947368 6.10526316,17.7894737 4.73684211,17.7894737 Z M5.63157895,22.5 C5.63157895,23 5.23684211,23.3947368 4.73684211,23.3947368 L2.5,23.3947368 C2,23.3947368 1.60526316,23 1.60526316,22.5 L1.60526316,20.2631579 C1.60526316,19.7631579 2,19.3684211 2.5,19.3684211 L4.73684211,19.3684211 C5.23684211,19.3684211 5.63157895,19.7631579 5.63157895,20.2631579 L5.63157895,22.5 Z" id="Shape"></path>
                <path d="M13.6052632,17.7894737 L11.3684211,17.7894737 C10,17.7894737 8.86842105,18.8947368 8.86842105,20.2894737 L8.86842105,22.5 C8.86842105,23.8684211 9.97368421,25 11.3684211,25 L13.6052632,25 C14.9736842,25 16.1052632,23.8947368 16.1052632,22.5 L16.1052632,20.2631579 C16.1052632,18.8947368 15,17.7894737 13.6052632,17.7894737 Z M14.5263158,22.5 C14.5263158,23 14.1315789,23.3947368 13.6315789,23.3947368 L11.3947368,23.3947368 C10.8947368,23.3947368 10.5,23 10.5,22.5 L10.5,20.2631579 C10.5,19.7631579 10.8947368,19.3684211 11.3947368,19.3684211 L13.6315789,19.3684211 C14.1315789,19.3684211 14.5263158,19.7631579 14.5263158,20.2631579 L14.5263158,22.5 Z" id="Shape"></path>
                <path d="M22.5,0 L20.2631579,0 C18.8947368,0 17.7631579,1.10526316 17.7631579,2.5 L17.7631579,4.73684211 C17.7631579,6.10526316 18.8684211,7.23684211 20.2631579,7.23684211 L22.5,7.23684211 C23.8684211,7.23684211 25,6.13157895 25,4.73684211 L25,2.5 C25,1.10526316 23.8947368,0 22.5,0 Z M23.3947368,4.73684211 C23.3947368,5.23684211 23,5.63157895 22.5,5.63157895 L20.2631579,5.63157895 C19.7631579,5.63157895 19.3684211,5.23684211 19.3684211,4.73684211 L19.3684211,2.5 C19.3684211,2 19.7631579,1.60526316 20.2631579,1.60526316 L22.5,1.60526316 C23,1.60526316 23.3947368,2 23.3947368,2.5 L23.3947368,4.73684211 Z" id="Shape"></path>
                <path d="M22.5,8.89473684 L20.2631579,8.89473684 C18.8947368,8.89473684 17.7631579,10 17.7631579,11.3947368 L17.7631579,13.6315789 C17.7631579,15 18.8684211,16.1315789 20.2631579,16.1315789 L22.5,16.1315789 C23.8684211,16.1315789 25,15.0263158 25,13.6315789 L25,11.3947368 C25,10 23.8947368,8.89473684 22.5,8.89473684 Z M23.3947368,13.6052632 C23.3947368,14.1052632 23,14.5 22.5,14.5 L20.2631579,14.5 C19.7631579,14.5 19.3684211,14.1052632 19.3684211,13.6052632 L19.3684211,11.3684211 C19.3684211,10.8684211 19.7631579,10.4736842 20.2631579,10.4736842 L22.5,10.4736842 C23,10.4736842 23.3947368,10.8684211 23.3947368,11.3684211 L23.3947368,13.6052632 Z" id="Shape"></path>
                <path d="M22.5,17.7894737 L20.2631579,17.7894737 C18.8947368,17.7894737 17.7631579,18.8947368 17.7631579,20.2894737 L17.7631579,22.5 C17.7631579,23.8684211 18.8684211,25 20.2631579,25 L22.5,25 C23.8684211,25 25,23.8947368 25,22.5 L25,20.2631579 C25,18.8947368 23.8947368,17.7894737 22.5,17.7894737 Z M23.3947368,22.5 C23.3947368,23 23,23.3947368 22.5,23.3947368 L20.2631579,23.3947368 C19.7631579,23.3947368 19.3684211,23 19.3684211,22.5 L19.3684211,20.2631579 C19.3684211,19.7631579 19.7631579,19.3684211 20.2631579,19.3684211 L22.5,19.3684211 C23,19.3684211 23.3947368,19.7631579 23.3947368,20.2631579 L23.3947368,22.5 Z" id="Shape"></path>
            </g>
        </g>
    </g>
</svg>