<svg width="250" height="250" xmlns="http://www.w3.org/2000/svg" viewBox="0 0 250 250">
  <g fill-rule="nonzero" fill="none">
    <circle fill="#D4EAF8" cx="125" cy="125" r="125"/>
    <path d="M186.3 174L158.5 54a4.8 4.8 0 00-5.8-3.6L68 70.2a4.8 4.8 0 00-3.5 5.7l27.8 120.2a4.8 4.8 0 005.7 3.5l84.7-19.8a4.8 4.8 0 003.6-5.7z" fill="#334D5C"/>
    <rect fill="#FFF" x="77.1" y="58.5" width="96.5" height="132.9" rx="13.4"/>
    <rect fill="#39B3CA" x="90" y="72.6" width="13.7" height="13.7" rx="6"/>
    <rect fill="#DDD" x="112" y="74.3" width="48.7" height="2.2" rx=".2"/>
    <rect fill="#DDD" x="112" y="79.5" width="27.8" height="2.2" rx=".2"/>
    <rect fill="#39B3CA" x="90" y="93.9" width="13.7" height="13.7" rx="6"/>
    <rect fill="#DDD" x="112" y="95.6" width="48.7" height="2.2" rx=".2"/>
    <rect fill="#DDD" x="112" y="100.8" width="27.8" height="2.2" rx=".2"/>
    <rect fill="#39B3CA" x="90" y="115.3" width="13.7" height="13.7" rx=".4"/>
    <rect fill="#DDD" x="112" y="117" width="48.7" height="2.2" rx=".2"/>
    <rect fill="#DDD" x="112" y="122.1" width="27.8" height="2.2" rx=".2"/>
    <path d="M198.7 90.6a5.2 5.2 0 00-7.3.4l-5 5.4c4.4 3.8 2.4 2.1 7.7 7l5-5.4a5.1 5.1 0 00-.4-7.4z" fill="#334D5C"/>
    <path fill="#F5333F" d="M194.1 103.4L140.6 162l-7.6-6.9 53.5-58.8z"/>
    <path d="M140.6 162.1l-7.8 4-5.3 2.9 2.2-5.7 3.3-8 7.6 6.8z" fill="#F3CD4C"/>
    <path d="M129.7 163.3a5 5 0 011.9 1.1c.5.5 1 1.1 1.2 1.8l-5.3 2.7 2.2-5.6z" fill="#616976"/>
    <path d="M95.5 178a1.1 1.1 0 01-.3-1.6l3.8-5.9c2.6-4 5.9-3 7.9 1s2.7 3 4.3.8c2.7-3.8 4.9-3.5 8.3-.6a10.3 10.3 0 0013.8 0 1.1 1.1 0 012 .5c.1.4 0 .9-.4 1.1-4.1 4-11.3 4.8-16.9.1-2.7-2.4-3.3-2-5 .2-3 4.2-6 3.5-8.2-1.1-1.6-3.3-2.7-2.6-4-.8l-3.7 5.9c-.3.5-1 .7-1.6.3z" fill="#334D5C"/>
  </g>
</svg>