<?xml version="1.0" encoding="UTF-8"?>
<svg width="250px" height="250px" viewBox="0 0 250 250" version="1.1" xmlns="http://www.w3.org/2000/svg" xmlns:xlink="http://www.w3.org/1999/xlink">
    <!-- Generator: Sketch 63.1 (92452) - https://sketch.com -->
    <title>utilitiesAsset 2</title>
    <desc>Created with Sketch.</desc>
    <g id="Page-1" stroke="none" stroke-width="1" fill="none" fill-rule="evenodd">
        <g id="custom-list-view_empty_desktop" transform="translate(-475.000000, -208.000000)" fill-rule="nonzero">
            <g id="utilitiesAsset-2" transform="translate(475.000000, 208.000000)">
                <circle id="Oval" fill="#D4EAF8" cx="125" cy="125" r="125"></circle>
                <path d="M186.257102,174.071429 L158.451705,53.9285714 C158.164592,52.6923895 157.400883,51.6215806 156.328635,50.9517821 C155.256386,50.2819836 153.963461,50.0680803 152.734375,50.3571429 L68.0042614,70.1785714 C65.4568826,70.7969785 63.8752666,73.357931 64.453125,75.9285714 L92.2585227,196.071429 C92.5456348,197.307611 93.3093443,198.378419 94.3815927,199.048218 C95.4538412,199.718016 96.7467661,199.93192 97.9758523,199.642857 L182.705966,179.821429 C183.935124,179.532676 184.999849,178.764602 185.665842,177.686227 C186.331834,176.607851 186.544522,175.307538 186.257102,174.071429 L186.257102,174.071429 Z" id="Path" fill="#334D5C"></path>
                <rect id="Rectangle" fill="#FFFFFF" x="77.1306818" y="58.5357143" width="96.5198864" height="132.939286" rx="13.4"></rect>
                <rect id="Rectangle" fill="#39B3CA" x="89.9857955" y="72.6071429" width="13.7428977" height="13.7464286" rx="6"></rect>
                <rect id="Rectangle" fill="#DDDDDD" x="112.038352" y="74.3214286" width="48.7215909" height="2.21428571" rx="0.2"></rect>
                <rect id="Rectangle" fill="#DDDDDD" x="112.038352" y="79.4642857" width="27.7698864" height="2.21428571" rx="0.2"></rect>
                <rect id="Rectangle" fill="#39B3CA" x="89.9857955" y="93.9285714" width="13.7428977" height="13.7464286" rx="6"></rect>
                <rect id="Rectangle" fill="#DDDDDD" x="112.038352" y="95.6428571" width="48.7215909" height="2.21428571" rx="0.2"></rect>
                <rect id="Rectangle" fill="#DDDDDD" x="112.038352" y="100.785714" width="27.7698864" height="2.21428571" rx="0.2"></rect>
                <rect id="Rectangle" fill="#39B3CA" x="89.9857955" y="115.25" width="13.7428977" height="13.7464286" rx="0.4"></rect>
                <rect id="Rectangle" fill="#DDDDDD" x="112.038352" y="116.964286" width="48.7215909" height="2.21428571" rx="0.2"></rect>
                <rect id="Rectangle" fill="#DDDDDD" x="112.038352" y="122.107143" width="27.7698864" height="2.21428571" rx="0.2"></rect>
                <path d="M198.650568,90.6428571 C196.545588,88.7277961 193.300745,88.8710666 191.370739,90.9642857 L186.47017,96.3571429 C190.767045,100.214286 188.81392,98.5 194.105114,103.357143 L199.005682,97.9642857 C199.94339,96.9553358 200.434824,95.60746 200.367917,94.2280304 C200.30101,92.8486008 199.681466,91.5552288 198.650568,90.6428571 L198.650568,90.6428571 Z" id="Path" fill="#334D5C"></path>
                <polygon id="Path" fill="#F5333F" points="194.105114 103.357143 140.625 162.142857 132.954545 155.214286 186.47017 96.3571429"></polygon>
                <path d="M140.625,162.142857 L132.848011,166.142857 L127.485795,168.964286 L129.6875,163.321429 L132.954545,155.214286 C135.9375,157.964286 139.0625,160.75 140.625,162.142857 Z" id="Path" fill="#F3CD4C"></path>
                <path d="M129.723011,163.321429 C130.411946,163.549549 131.042428,163.927561 131.569602,164.428571 C132.113926,164.914483 132.549641,165.510927 132.848011,166.178571 L127.450284,168.928571 L129.723011,163.321429 Z" id="Path" fill="#616976"></path>
                <path d="M95.5255682,177.928571 C95.2700252,177.767833 95.09119,177.508748 95.0307891,177.211767 C94.9703882,176.914786 95.0337049,176.605887 95.2059659,176.357143 L98.9701705,170.535714 C101.633523,166.464286 104.865057,167.428571 106.853693,171.5 C108.84233,175.571429 109.62358,174.464286 111.18608,172.321429 C113.920455,168.535714 116.086648,168.785714 119.495739,171.678571 C124.112216,175.571429 130.042614,174.857143 133.34517,171.678571 C133.626158,171.345631 134.071236,171.202837 134.49202,171.310628 C134.912805,171.418419 135.235727,171.757949 135.324108,172.185509 C135.412488,172.613069 135.250874,173.053905 134.90767,173.321429 C130.752841,177.25 123.579545,178.071429 118.039773,173.428571 C115.269886,171.035714 114.666193,171.357143 113.03267,173.642857 C110.049716,177.785714 107.03125,177.071429 104.829545,172.5 C103.196023,169.178571 102.130682,169.857143 100.887784,171.75 L97.0880682,177.571429 C96.7535131,178.102361 96.055435,178.261922 95.5255682,177.928571 L95.5255682,177.928571 Z" id="Path" fill="#334D5C"></path>
            </g>
        </g>
    </g>
</svg>