<?xml version="1.0" encoding="UTF-8"?>
<svg width="30px" height="30px" viewBox="0 0 30 30" version="1.1" xmlns="http://www.w3.org/2000/svg" xmlns:xlink="http://www.w3.org/1999/xlink">
    <!-- Generator: Sketch 63.1 (92452) - https://sketch.com -->
    <title>Group</title>
    <desc>Created with Sketch.</desc>
    <g id="Page-1" stroke="none" stroke-width="1" fill="none" fill-rule="evenodd">
        <g id="timeline-view_mobile" transform="translate(-278.000000, -613.000000)" fill="#FFFFFF" fill-rule="nonzero">
            <g id="Group" transform="translate(278.000000, 613.000000)">
                <path d="M19.6116638,29.9836731 L2.14675906,29.9836731 C0.966644312,29.9836731 0.0065613125,29.0235901 0.0065613125,27.8431702 L0.0065613125,4.58084106 C0.0065613125,3.33786013 1.02035525,2.32681275 2.26669312,2.32681275 L6.39938356,2.32681275 C6.74453737,2.32681275 7.02438356,2.60665894 7.02438356,2.95181275 C7.02438356,3.29696656 6.74453737,3.57681275 6.39938356,3.57681275 L2.26669312,3.57681275 C1.70974731,3.57681275 1.25656131,4.02725219 1.25656131,4.58084106 L1.25656131,27.8431702 C1.25656131,28.3338929 1.65603644,28.7336731 2.14675906,28.7336731 L19.6116639,28.7336731 C20.1023866,28.7336731 20.5018616,28.3338929 20.5018616,27.8431702 L20.5018616,4.58084106 C20.5018616,4.02725219 20.0486756,3.57681275 19.4917298,3.57681275 L15.3590394,3.57681275 C15.0138856,3.57681275 14.7340394,3.29696656 14.7340394,2.95181275 C14.7340394,2.60665894 15.0138856,2.32681275 15.3590394,2.32681275 L19.4917298,2.32681275 C20.7380677,2.32681275 21.7518616,3.33786013 21.7518616,4.58084106 L21.7518616,27.8431702 C21.7518616,29.0235901 20.7917786,29.9836731 19.6116638,29.9836731 Z" id="Path"></path>
                <g id="Group-3" transform="translate(3.121158, 9.463378)">
                    <path d="M14.8904691,8.78628674 L6.04220259,8.78628674 C5.69704877,8.78628674 5.41720259,8.50613536 5.41720259,8.16098155 C5.41720259,7.81582774 5.69704877,7.53598155 6.04220259,7.53598155 L14.8904692,7.53598155 C15.235623,7.53598155 15.5154692,7.81582774 15.5154692,8.16098155 C15.5154692,8.50613536 15.235623,8.78628674 14.8904691,8.78628674 Z" id="Path"></path>
                    <path d="M1.90615521,10.0271315 C1.73586715,10.0271315 1.57290327,9.95755142 1.45480021,9.83487074 L0.173672274,8.4982008 C-0.0649751637,8.24887217 -0.0567354137,7.85305917 0.192593149,7.61410655 C0.441311399,7.37606942 0.836819211,7.38339367 1.07638221,7.63302742 L1.90615515,8.49881111 L3.83334021,6.48739755 C4.07229284,6.23837411 4.46841102,6.23043955 4.71712927,6.46847667 C4.9664579,6.7074293 4.97469765,7.10293711 4.73605015,7.35226574 L2.35751009,9.83426036 C2.23940715,9.95755136 2.07644327,10.0271315 1.90615521,10.0271315 Z" id="Path"></path>
                    <path d="M14.8904691,2.49105967 L6.04220259,2.49105967 C5.69704877,2.49105967 5.41720259,2.21121349 5.41720259,1.86605967 C5.41720259,1.52090586 5.69704877,1.24105967 6.04220259,1.24105967 L14.8904692,1.24105967 C15.235623,1.24105967 15.5154692,1.52090586 15.5154692,1.86605967 C15.5154692,2.21121349 15.235623,2.49105967 14.8904691,2.49105967 Z" id="Path"></path>
                    <path d="M1.90615521,3.73220961 C1.73586715,3.73220961 1.57290327,3.66262955 1.45480021,3.53964367 L0.173672274,2.20297374 C-0.0649751637,1.9539503 -0.0567354137,1.5581373 0.192593149,1.31918467 C0.441311399,1.08084236 0.836819211,1.08816661 1.07638221,1.33810555 L1.90615515,2.20388924 L3.83334021,0.192475673 C4.07229284,-0.0568529522 4.46841102,-0.0647875147 4.71712927,0.173554798 C4.9664579,0.412507423 4.97469765,0.808015235 4.73605015,1.05734386 L2.35751009,3.53964367 C2.23940715,3.66262949 2.07644327,3.73220961 1.90615521,3.73220961 Z" id="Path"></path>
                    <path d="M14.8904691,15.2496656 L6.0418974,15.2496656 C5.69674359,15.2496656 5.4168974,14.9701246 5.4168974,14.6246656 C5.4168974,14.2792066 5.69674359,13.9996656 6.0418974,13.9996656 L14.8904691,13.9996656 C15.235623,13.9996656 15.5154691,14.2792066 15.5154691,14.6246656 C15.5154691,14.9701246 15.235623,15.2496656 14.8904691,15.2496656 Z" id="Path"></path>
                    <path d="M0.625332461,16.6595777 C0.469692836,16.6595777 0.314053149,16.6022047 0.192898399,16.4856275 C-0.0564302262,16.2469801 -0.0646699762,15.8514723 0.173977524,15.6018385 L2.87630909,12.7820142 C3.11587209,12.5336012 3.51107471,12.5238355 3.76009815,12.7637037 C4.00942677,13.0023511 4.01766652,13.3978589 3.77901902,13.6474927 L1.07668746,16.467317 C0.953701586,16.5948805 0.789517024,16.6595777 0.625332461,16.6595777 Z" id="Path"></path>
                    <path d="M3.32766396,16.6595777 C3.16317421,16.6595777 2.99929484,16.5948805 2.87630896,16.467317 L0.173977399,13.6474927 C-0.0646700387,13.3978589 -0.0564302887,13.0023511 0.192898274,12.7637037 C0.442532086,12.5256665 0.837429524,12.5342115 1.07668734,12.7820142 L3.7790189,15.6018385 C4.01766634,15.8514723 4.00942659,16.2469801 3.76009802,16.4856275 C3.63894327,16.6015944 3.48330365,16.6595777 3.32766396,16.6595777 Z" id="Path"></path>
                </g>
                <path d="M16.9538879,5.88302613 L4.80422975,5.88302613 C4.57168581,5.88302613 4.35867313,5.75393675 4.25064088,5.54824831 C4.14260863,5.34225469 4.15786744,5.09353638 4.29031375,4.90249638 L7.48458863,0.285797125 C7.60116575,0.117034938 7.7934265,0.0163269375 7.99850463,0.0163269375 L13.759613,0.0163269375 C13.9646911,0.0163269375 14.1569519,0.117034938 14.273529,0.285797125 L17.4678039,4.90249638 C17.6002502,5.09353644 17.6155089,5.34225469 17.5074768,5.54824831 C17.3994446,5.75393675 17.1864319,5.88302613 16.9538879,5.88302613 Z M5.9965515,4.63302613 L15.7615661,4.63302613 L13.4321594,1.26632687 L8.32595825,1.26632687 L5.9965515,4.63302613 Z" id="Shape"></path>
                <g transform="translate(23.125000, 2.500000)">
                    <g>
                        <path d="M5.33981325,26.3966369 L1.86264037,26.3966369 C0.991058313,26.3966369 0.334014875,25.4121399 0.334014875,24.1059875 L0.334014875,7.99728394 C0.334014875,7.92343137 0.347137437,7.84988406 0.372772187,7.78060912 L3.01498412,0.631256125 C3.10562131,0.385894812 3.33969119,0.222930937 3.60122681,0.222930937 C3.86276244,0.222930937 4.09683231,0.385894812 4.1874695,0.631256125 L6.82968144,7.78060912 C6.85531619,7.849884 6.86843875,7.92343138 6.86843875,7.99728394 L6.86843875,24.1059876 C6.86843875,25.4121399 6.21139525,26.3966369 5.33981325,26.3966369 Z M1.58401487,8.10897825 L1.58401487,24.1059875 C1.58401487,24.7322082 1.8107605,25.1045227 1.905365,25.1545715 L5.33981325,25.1466369 C5.39169312,25.1045227 5.61843875,24.7322083 5.61843875,24.1059875 L5.61843875,8.10897825 L3.60122681,2.65090938 L1.58401487,8.10897825 Z" id="Shape"></path>
                        <rect id="Rectangle" x="0.945892313" y="19.4160461" width="5.31066894" height="1.25"></rect>
                    </g>
                    <path d="M6.24343875,8.62228394 L0.959014938,8.62228394 C0.613861125,8.62228394 0.334014938,8.34243775 0.334014938,7.99728394 C0.334014938,7.65213012 0.613861125,7.37228394 0.959014938,7.37228394 L6.24343875,7.37228394 C6.58859256,7.37228394 6.86843875,7.65213012 6.86843875,7.99728394 C6.86843875,8.34243775 6.5885925,8.62228394 6.24343875,8.62228394 Z" id="Path"></path>
                </g>
            </g>
        </g>
    </g>
</svg>